HIERARCHY
ROOT Hips
{
 OFFSET 0.000000 0.000000 0.000000
 CHANNELS 6 Xposition Yposition Zposition Yrotation Xrotation Zrotation
 JOINT Chest
 {
  OFFSET 0.000000 9.857222 0.000240
  CHANNELS 3 Yrotation Xrotation Zrotation
  JOINT Chest2
  {
   OFFSET 0.000000 10.876940 -0.000436
   CHANNELS 3 Yrotation Xrotation Zrotation
   JOINT Chest3
   {
    OFFSET 0.000000 9.827798 0.000000
    CHANNELS 3 Yrotation Xrotation Zrotation
    JOINT Chest4
    {
     OFFSET 0.000000 9.827798 0.000000
     CHANNELS 3 Yrotation Xrotation Zrotation
     JOINT Neck
     {
      OFFSET 0.000000 13.831992 0.000000
      CHANNELS 3 Yrotation Xrotation Zrotation
      JOINT Head
      {
       OFFSET 0.000000 9.147643 -0.001036
       CHANNELS 3 Yrotation Xrotation Zrotation
       End Site
       {
        OFFSET 0.000000 17.515799 -0.000541
       }
      }
     }
     JOINT RightCollar
     {
      OFFSET -3.001579 7.717577 0.000000
      CHANNELS 3 Yrotation Xrotation Zrotation
      JOINT RightShoulder
      {
       OFFSET -14.002642 0.000000 0.000000
       CHANNELS 3 Yrotation Xrotation Zrotation
       JOINT RightElbow
       {
        OFFSET -30.053852 0.000000 0.000000
        CHANNELS 3 Yrotation Xrotation Zrotation
        JOINT RightWrist
        {
         OFFSET -24.564923 0.000000 -0.000000
         CHANNELS 3 Yrotation Xrotation Zrotation
         End Site
         {
          OFFSET -18.334355 0.000000 0.000000
         }
        }
       }
      }
     }
     JOINT LeftCollar
     {
      OFFSET 3.001579 7.717577 0.000000
      CHANNELS 3 Yrotation Xrotation Zrotation
      JOINT LeftShoulder
      {
       OFFSET 14.002642 0.000000 0.000000
       CHANNELS 3 Yrotation Xrotation Zrotation
       JOINT LeftElbow
       {
        OFFSET 30.053852 0.000000 0.000000
        CHANNELS 3 Yrotation Xrotation Zrotation
        JOINT LeftWrist
        {
         OFFSET 24.564923 0.000000 -0.000000
         CHANNELS 3 Yrotation Xrotation Zrotation
         End Site
         {
          OFFSET 18.334355 0.000000 0.000000
         }
        }
       }
      }
     }
    }
   }
  }
 }
 JOINT RightHip
 {
  OFFSET -8.003235 -0.001175 -0.000120
  CHANNELS 3 Yrotation Xrotation Zrotation
  JOINT RightKnee
  {
   OFFSET 0.000000 -41.759727 0.000113
   CHANNELS 3 Yrotation Xrotation Zrotation
   JOINT RightAnkle
   {
    OFFSET 0.000000 -40.728748 0.000159
    CHANNELS 3 Yrotation Xrotation Zrotation
    JOINT RightToe
    {
     OFFSET 0.000000 -6.515296 14.732841
     CHANNELS 3 Yrotation Xrotation Zrotation
     End Site
     {
      OFFSET 0.000000 -1.502839 6.412115
     }
    }
   }
  }
 }
 JOINT LeftHip
 {
  OFFSET 8.003235 -0.001175 -0.000120
  CHANNELS 3 Yrotation Xrotation Zrotation
  JOINT LeftKnee
  {
   OFFSET 0.000000 -41.759727 0.000113
   CHANNELS 3 Yrotation Xrotation Zrotation
   JOINT LeftAnkle
   {
    OFFSET 0.000000 -40.728748 0.000159
    CHANNELS 3 Yrotation Xrotation Zrotation
    JOINT LeftToe
    {
     OFFSET 0.000000 -6.515296 14.732841
     CHANNELS 3 Yrotation Xrotation Zrotation
     End Site
     {
      OFFSET 0.000000 -1.502839 6.412115
     }
    }
   }
  }
 }
}
MOTION
Frames: 15
Frame Time: 0.016667
0.000000 88.822259 0.000000 0.000000 -5.826342 0.000000 0.000000 11.116423 0.000000 0.000000 -5.290081 0.000000 0.000000 0.000000 0.000000 0.000000 0.000000 0.000000 0.000000 12.665069 0.000000 0.000000 0.575450 0.000000 0.000000 0.000000 0.000000 0.000000 0.000000 0.000000 2.337306 0.000000 0.000000 -2.337306 0.000000 0.000000 0.000000 0.000000 0.000000 0.000000 0.000000 0.000000 -2.337306 0.000000 0.000000 2.337306 0.000000 0.000000 0.000000 8.578828 0.000000 0.000000 1.905768 0.000000 0.000000 -4.658254 0.000000 0.000000 0.000000 0.000000 0.000000 8.578828 0.000000 0.000000 1.905768 0.000000 0.000000 -4.658254 0.000000 0.000000 0.000000 0.000000
11.145567 89.807492 16.517856 -27.684577 -22.754327 0.610120 -1.687776 9.783957 0.058853 -0.719796 4.315203 0.072003 -0.719796 4.315203 0.072003 -0.540101 3.236323 0.059068 -7.944356 21.097268 1.486051 -14.839396 3.533991 4.970769 10.310881 14.954854 -0.362917 86.367533 11.143420 -7.705858 2.493628 6.828534 -5.032287 -1.739274 5.310620 -5.811586 -21.332794 19.447535 -6.861365 -63.751737 -7.381952 18.519265 -7.056784 8.060922 4.515036 1.502289 2.419462 3.761482 -7.494085 25.627041 -14.363928 -6.339910 -0.498209 4.189849 -0.044708 -1.461284 4.357414 -0.053911 0.121844 -0.010436 -8.441992 18.108623 4.122578 18.406652 13.519738 2.054570 -2.374919 -4.591666 -7.073759 0.013869 0.029359 0.011495
11.146929 89.805736 16.522079 -27.691766 -22.779281 0.609975 -1.680534 9.801314 0.062438 -0.717194 4.323860 0.074042 -0.717194 4.323860 0.074042 -0.538165 3.242813 0.060588 -7.947231 21.093230 1.493412 -14.847017 3.527842 4.985323 10.290271 14.937982 -0.360232 86.379582 11.108201 -7.711861 2.492105 6.823170 -5.018186 -1.738555 5.318992 -5.778368 -21.329264 19.442252 -6.852552 -63.749873 -7.365078 18.522676 -7.030342 8.025668 4.521608 1.506824 2.435485 3.757935 -7.461103 25.646644 -14.353545 -6.371808 -0.474578 4.185531 -0.035079 -1.467535 4.360927 -0.053865 0.117133 -0.012746 -8.418040 18.121828 4.135283 18.409425 13.550382 2.050137 -2.405324 -4.606093 -7.066249 0.013775 0.027806 0.009953
11.147043 89.802963 16.522459 -27.714679 -22.781408 0.609768 -1.658406 9.797847 0.070522 -0.711962 4.329561 0.075131 -0.711962 4.329561 0.075131 -0.534250 3.247089 0.061374 -7.947940 21.094774 1.503151 -14.850957 3.532092 5.002919 10.274892 14.914827 -0.344056 86.383292 11.085432 -7.697345 2.491098 6.810027 -5.007632 -1.746444 5.341479 -5.773790 -21.333803 19.447944 -6.843258 -63.745912 -7.385302 18.521274 -7.034113 8.023493 4.529647 1.507566 2.451563 3.776230 -7.433881 25.643185 -14.343998 -6.350478 -0.459955 4.182085 -0.053983 -1.449623 4.359788 -0.044258 0.090696 -0.010481 -8.384536 18.112784 4.156648 18.403560 13.575031 2.044895 -2.425522 -4.601535 -7.060368 0.012386 0.014812 0.006997
11.144046 89.801509 16.524062 -27.722518 -22.818508 0.609597 -1.652422 9.820256 0.073400 -0.709615 4.340032 0.076327 -0.709615 4.340032 0.076327 -0.532499 3.254941 0.062266 -7.942240 21.094293 1.511284 -14.842986 3.531676 5.016081 10.271660 14.896788 -0.334990 86.382833 11.070043 -7.684913 2.484032 6.804663 -4.998477 -1.751016 5.339399 -5.794359 -21.321191 19.449933 -6.831582 -63.756880 -7.455231 18.526988 -7.056567 8.086492 4.537753 1.511087 2.468799 3.795871 -7.423678 25.675077 -14.342568 -6.358111 -0.446151 4.178542 -0.043513 -1.454399 4.362636 -0.047041 0.088536 -0.013728 -8.395144 18.134487 4.151544 18.425924 13.611316 2.052624 -2.410624 -4.613041 -7.064125 0.014193 0.012938 0.006289
11.143825 89.800747 16.527333 -27.726977 -22.854119 0.612203 -1.643810 9.840595 0.074611 -0.706630 4.350325 0.077003 -0.706630 4.350325 0.077003 -0.530266 3.262660 0.062763 -7.942973 21.093468 1.518352 -14.846393 3.531191 5.029137 10.255827 14.883003 -0.329586 86.399908 11.042827 -7.668721 2.466979 6.789769 -4.993630 -1.761841 5.354746 -5.823695 -21.314721 19.454409 -6.813747 -63.764922 -7.532204 18.528597 -7.090517 8.172974 4.548530 1.513468 2.459561 3.822231 -7.414512 25.710036 -14.349075 -6.355809 -0.441309 4.179243 -0.044537 -1.452903 4.367596 -0.049475 0.084421 -0.017158 -8.410711 18.158564 4.144567 18.429660 13.640608 2.055744 -2.422861 -4.627074 -7.065222 0.013630 0.011315 0.004400
11.143797 89.799170 16.530682 -27.708929 -22.880365 0.613627 -1.659666 9.857236 0.070651 -0.705534 4.359537 0.077497 -0.705534 4.359537 0.077497 -0.529448 3.269568 0.063137 -7.943059 21.093082 1.521385 -14.847443 3.530898 5.034681 10.239296 14.866892 -0.328258 86.417290 11.020162 -7.662866 2.451792 6.792320 -4.973048 -1.787749 5.373503 -5.832418 -21.314649 19.449045 -6.805409 -63.749046 -7.578953 18.529797 -7.140347 8.207792 4.559908 1.502427 2.444877 3.853465 -7.416108 25.735785 -14.357965 -6.361984 -0.434254 4.181500 -0.032075 -1.477859 4.378061 -0.066947 0.104676 -0.026795 -8.432737 18.175776 4.131958 18.452278 13.647938 2.067138 -2.449447 -4.632010 -7.077190 0.033040 0.017760 0.012654
11.144203 89.796749 16.534050 -27.720604 -22.902897 0.621792 -1.653054 9.874171 0.070908 -0.704207 4.367631 0.077882 -0.704207 4.367631 0.077882 -0.528457 3.275639 0.063424 -7.945829 21.090810 1.521635 -14.852711 3.527041 5.036165 10.213468 14.860923 -0.334579 86.448805 11.007155 -7.659431 2.428418 6.796820 -4.962008 -1.804943 5.381470 -5.814518 -21.306206 19.445135 -6.796269 -63.739786 -7.591181 18.521725 -7.174260 8.227960 4.582890 1.482799 2.433891 3.904726 -7.386468 25.763987 -14.363975 -6.350030 -0.437915 4.187994 -0.044536 -1.477793 4.385963 -0.073646 0.104859 -0.033270 -8.427522 18.194103 4.126570 18.462637 13.661078 2.070365 -2.453114 -4.640666 -7.079992 0.036940 0.020773 0.013278
11.144684 89.793671 16.534278 -27.737485 -22.923726 0.629857 -1.648293 9.888644 0.068884 -0.704621 4.375501 0.075595 -0.704621 4.375501 0.075595 -0.528750 3.281544 0.061722 -7.942004 21.089879 1.522893 -14.846212 3.525070 5.037485 10.204916 14.853082 -0.322363 86.476076 11.005245 -7.649593 2.410914 6.784599 -4.953978 -1.815048 5.410930 -5.766326 -21.282579 19.448934 -6.775430 -63.729997 -7.584187 18.527670 -7.197162 8.239090 4.593619 1.476215 2.424010 3.940816 -7.339672 25.787884 -14.361602 -6.349918 -0.436854 4.194597 -0.042445 -1.480353 4.389257 -0.076930 0.106772 -0.036546 -8.421247 18.205075 4.125009 18.490256 13.684989 2.074250 -2.489250 -4.656468 -7.077758 0.040102 0.023684 0.013344
11.148844 89.790669 16.533945 -27.748636 -22.942446 0.640730 -1.643722 9.906897 0.064373 -0.704124 4.384615 0.074020 -0.704124 4.384615 0.074020 -0.528367 3.288381 0.060549 -7.938932 21.084477 1.525909 -14.841929 3.515160 5.042710 10.193320 14.831425 -0.311420 86.505154 10.992171 -7.644000 2.390683 6.800022 -4.938742 -1.819285 5.425857 -5.715438 -21.270789 19.432098 -6.754678 -63.722001 -7.589366 18.524087 -7.219064 8.251319 4.611654 1.469272 2.408129 3.971736 -7.302790 25.805896 -14.368163 -6.389433 -0.427631 4.204788 -0.015172 -1.484269 4.396052 -0.083426 0.109140 -0.042901 -8.432307 18.211898 4.110061 18.534350 13.705634 2.084320 -2.519460 -4.668568 -7.074974 0.041957 0.027143 0.012731
11.153033 89.787787 16.531841 -27.770495 -22.958811 0.650147 -1.633937 9.921019 0.066997 -0.702540 4.392109 0.074285 -0.702540 4.392109 0.074285 -0.527181 3.294002 0.060744 -7.937235 21.082664 1.524642 -14.838635 3.511452 5.040163 10.190880 14.819747 -0.301387 86.524724 10.974240 -7.644549 2.378846 6.826418 -4.922484 -1.825656 5.443315 -5.675855 -21.245668 19.427371 -6.734224 -63.735298 -7.619389 18.523795 -7.237317 8.283125 4.622820 1.451342 2.370088 4.027741 -7.237186 25.821455 -14.359731 -6.411278 -0.417656 4.210820 -0.016196 -1.486960 4.402357 -0.087782 0.110587 -0.046484 -8.420947 18.218322 4.105549 18.575696 13.723233 2.095269 -2.552634 -4.678486 -7.073744 0.045700 0.030162 0.012955
11.161678 89.784929 16.527891 -27.795217 -22.966425 0.661559 -1.617809 9.929072 0.068627 -0.698947 4.397577 0.075352 -0.698947 4.397577 0.075352 -0.524496 3.298102 0.061524 -7.935996 21.081487 1.524813 -14.836530 3.509164 5.040265 10.183206 14.807693 -0.286628 86.522197 10.965956 -7.643626 2.393222 6.828490 -4.911064 -1.823396 5.469536 -5.645688 -21.223432 19.419461 -6.708373 -63.803705 -7.921453 18.469490 -7.289880 8.554606 4.663454 1.439598 2.390028 4.069591 -7.157236 25.822242 -14.353249 -6.454367 -0.395141 4.225722 -0.003885 -1.491102 4.408150 -0.096215 0.110549 -0.051728 -8.400684 18.218421 4.107223 18.594213 13.734782 2.090417 -2.583030 -4.687177 -7.063645 0.049275 0.035400 0.013045
11.174565 89.781049 16.520715 -27.813766 -22.957835 0.671663 -1.610780 9.935828 0.071416 -0.700369 4.402305 0.077142 -0.700369 4.402305 0.077142 -0.525575 3.301646 0.062882 -7.924637 21.074691 1.524073 -14.816268 3.495257 5.036576 10.185790 14.787978 -0.279250 86.519089 10.947214 -7.652562 2.415334 6.847276 -4.893996 -1.820998 5.489291 -5.641333 -21.201215 19.398159 -6.686582 -63.828294 -8.083675 18.460834 -7.325732 8.746222 4.647862 1.423914 2.362924 4.128953 -7.098337 25.794247 -14.359601 -6.463309 -0.363320 4.245175 0.002787 -1.498260 4.418286 -0.109564 0.110491 -0.059846 -8.389223 18.193750 4.109156 18.622562 13.756434 2.087591 -2.613902 -4.697562 -7.054088 0.057651 0.041055 0.015632
11.194919 89.775901 16.511194 -27.839889 -22.940634 0.683453 -1.599019 9.945936 0.074075 -0.700427 4.409029 0.079519 -0.700427 4.409029 0.079519 -0.525635 3.306686 0.064672 -7.911312 21.058545 1.528794 -14.794735 3.464599 5.043286 10.195712 14.776332 -0.271027 86.508706 10.922111 -7.688363 2.430112 6.883596 -4.880057 -1.821542 5.496065 -5.643001 -21.174580 19.366075 -6.661062 -63.831350 -8.134476 18.452492 -7.360944 8.821118 4.650620 1.395769 2.331149 4.184467 -7.031974 25.750913 -14.372960 -6.421744 -0.332194 4.269379 -0.009611 -1.505061 4.432418 -0.124995 0.111031 -0.068800 -8.367162 18.155935 4.109970 18.673100 13.778944 2.098634 -2.680021 -4.711627 -7.045684 0.066094 0.049610 0.018616
11.209645 89.771906 16.497340 -27.862698 -22.923431 0.682159 -1.586233 9.957669 0.089153 -0.700070 4.414806 0.082059 -0.700070 4.414806 0.082059 -0.525386 3.311016 0.066580 -7.899077 21.039836 1.535203 -14.775858 3.429554 5.053639 10.187263 14.770834 -0.268703 86.509221 10.911314 -7.719728 2.444648 6.903800 -4.873649 -1.820863 5.503652 -5.639140 -21.149410 19.351993 -6.642208 -63.838622 -8.135274 18.450600 -7.393727 8.776081 4.698981 1.359724 2.322921 4.242375 -7.025283 25.702489 -14.366259 -6.338228 -0.319671 4.252469 -0.025292 -1.507687 4.445262 -0.116851 0.115683 -0.067323 -8.333250 18.121630 4.127533 18.694286 13.795192 2.101957 -2.705014 -4.720039 -7.037821 0.069504 0.060002 0.020881
